<?xml version="1.0" encoding="UTF-8"?>
<svg width="547px" height="546px" viewBox="0 0 547 546" version="1.1" xmlns="http://www.w3.org/2000/svg" xmlns:xlink="http://www.w3.org/1999/xlink">
    <!-- Generator: Sketch 50.2 (55047) - http://www.bohemiancoding.com/sketch -->
    <title>logo-symbol-v2</title>
    <desc>Created with Sketch.</desc>
    <defs></defs>
    <g id="logo-symbol-v2" stroke="none" stroke-width="1" fill="none" fill-rule="evenodd">
        <g id="Group-Copy" transform="translate(44.000000, 46.000000)" fill="#3548FF" fill-rule="nonzero">
            <path d="M194.367852,244.860911 C205.592812,256.898206 204.934423,275.755859 192.8973,286.980657 C180.860178,298.205455 162.002535,297.546797 150.777576,285.509502 L23.4993497,149.020315 C-9.06437987,114.09999 -7.12526843,59.3839411 27.8083519,26.8078131 C62.7419723,-5.76831486 117.460001,-3.88590409 150.023731,31.0344206 L184.435713,67.936753 C195.660672,79.9740479 195.002283,98.8317004 182.965161,110.056499 C170.928038,121.281297 152.070395,120.622639 140.845436,108.585344 L106.433454,71.6830113 C96.3292082,60.8475339 79.3271454,60.2626286 68.4575246,70.398714 C57.5879038,80.5347994 56.9853804,97.5362469 67.0896265,108.371724 L194.367852,244.860911 Z M211.121263,194.703984 C199.083968,205.928943 180.226316,205.270554 169.001517,193.233432 C157.776719,181.196309 158.435377,162.338666 170.472672,151.113707 L306.961859,23.835481 C341.882184,-8.7282486 396.598233,-6.78913716 429.174361,28.1444832 C461.750489,63.0781036 459.868078,117.796133 424.947754,150.359862 L388.045421,184.771844 C376.008126,195.996803 357.150474,195.338414 345.925675,183.301292 C334.700877,171.264169 335.359536,152.406526 347.396831,141.181567 L384.299163,106.769586 C395.13464,96.6653394 395.719546,79.6632767 385.58346,68.7936559 C375.447375,57.9240351 358.445927,57.3215117 347.61045,67.4257577 L211.121263,194.703984 Z M266.462658,209.393668 C255.237699,197.356373 255.896087,178.49872 267.93321,167.273922 C279.970333,156.049124 298.827976,156.707782 310.052935,168.745077 L437.331161,305.234264 C469.89489,340.154589 467.955779,394.870638 433.022158,427.446766 C398.088538,460.022894 343.370509,458.140483 310.806779,423.220159 L276.394798,386.317826 C265.169839,374.280531 265.828227,355.422879 277.86535,344.19808 C289.902472,332.973282 308.760115,333.631941 319.985074,345.669235 L354.397056,382.571568 C364.501302,393.407045 381.503365,393.991951 392.372986,383.855865 C403.242607,373.71978 403.84513,356.718332 393.740884,345.882855 L266.462658,209.393668 Z M249.709247,259.550595 C261.746542,248.325636 280.604195,248.984025 291.828993,261.021147 C303.053792,273.05827 302.395133,291.915913 290.357838,303.140872 L153.868651,430.419098 C118.948326,462.982828 64.2322773,461.043716 31.6561493,426.110096 C-0.919978743,391.176476 0.962432029,336.458446 35.8827567,303.894717 L72.7850891,269.482735 C84.822384,258.257776 103.680037,258.916165 114.904835,270.953287 C126.129633,282.99041 125.470975,301.848053 113.43368,313.073012 L76.5313474,347.484994 C65.6958701,357.58924 65.1109648,374.591302 75.2470501,385.460923 C85.3831355,396.330544 102.384583,396.933067 113.22006,386.828821 L249.709247,259.550595 Z" id="Combined-Shape-Copy-12"></path>
        </g>
    </g>
</svg>